# AST/ASF file generated using VICON BodyLanguage
# -----------------------------------------------
:version 1.10
:name VICON
:units
  mass 1.0
  length 0.45
  angle deg
:documentation
   .ast/.asf automatically generated from VICON data using
   VICON BodyBuilder and BodyLanguage model FoxedUp or BRILLIANT.MOD
:root
   order TX TY TZ RX RY RZ
   axis XYZ
   position 0 0 0  
   orientation 0 0 0 
:bonedata
  begin
     id 1 
     name lhipjoint
     direction 0.624716 -0.669793 0.401383 
     length 2.38238 
     axis 0 0 0  XYZ
  end
  begin
     id 2 
     name lfemur
     direction 0.34202 -0.939693 0  
     length 6.4574  
     axis 0 0 20  XYZ
    dof rx ry rz
    limits (-160.0 20.0)
           (-70.0 70.0)
           (-60.0 70.0)
  end
  begin
     id 3 
     name ltibia
     direction 0.34202 -0.939693 0   
     length 7.68739   
     axis 0 0 20   XYZ
    dof rx
    limits (-10.0 170.0)
  end
  begin
     id 4 
     name lfoot
     direction 0.0681309 -0.187188 0.979959   
     length 2.46615   
     axis -90 7.62852e-016 20   XYZ
    dof rx rz
    limits (-45.0 90.0)
           (-70.0 20.0)
  end
  begin
     id 5 
     name ltoes
     direction 1.53566e-011 -4.21819e-011 1   
     length 1.2376   
     axis -90 7.62852e-016 20   XYZ
    dof rx
    limits (-90.0 20.0)
  end
  begin
     id 6 
     name rhipjoint
     direction -0.644473 -0.655875 0.393043   
     length 2.43293  
     axis 0 0 0  XYZ 
  end
  begin
     id 7 
     name rfemur
     direction -0.34202 -0.939693 0   
     length 6.7025   
     axis 0 0 -20   XYZ
    dof rx ry rz
    limits (-160.0 20.0)
           (-70.0 70.0)
           (-70.0 60.0)
  end
  begin
     id 8 
     name rtibia
     direction -0.34202 -0.939693 0   
     length 7.80547   
     axis 0 0 -20   XYZ
    dof rx
    limits (-10.0 170.0)
 end
 begin
     id 9 
     name rfoot
     direction -0.0756734 -0.207911 0.975216   
     length 2.40315  
     axis -90 -7.62852e-016 -20   XYZ
    dof rx rz
    limits (-45.0 90.0)
           (-20.0 70.0)
  end
  begin
     id 10 
     name rtoes
     direction -1.5353e-011 -4.21879e-011 1   
     length 1.20477   
     axis -90 -7.62852e-016 -20   XYZ
    dof rx
    limits (-90.0 20.0)
  end
  begin
     id 11 
     name lowerback
     direction 0.0160353 0.987463 -0.157037   
     length 2.18572   
     axis 0 0 0   XYZ
    dof rx ry rz
    limits (-20.0 45.0)
           (-30.0 30.0)
           (-30.0 30.0)
  end
  begin
     id 12 
     name upperback
     direction -0.00499661 0.999756 0.0215076   
     length 2.18016   
     axis 0 0 0   XYZ
    dof rx ry rz
    limits (-20.0 45.0)
           (-30.0 30.0)
           (-30.0 30.0)
  end
  begin
     id 13 
     name thorax
     direction -0.00921346 0.995333 0.0960619   
     length 2.24923   
     axis 0 0 0   XYZ
    dof rx ry rz
    limits (-20.0 45.0)
           (-30.0 30.0)
           (-30.0 30.0)
  end
  begin
     id 14 
     name lowerneck
     direction 0.0274184 0.991181 0.12965   
     length 1.70911   
     axis 0 0 0   XYZ
    dof rx ry rz
    limits (-20.0 45.0)
           (-30.0 30.0)
           (-30.0 30.0)
  end
  begin
     id 15 
     name upperneck
     direction 0.0015627 0.999959 -0.00893559   
     length 1.69312   
     axis 0 0 0   XYZ
    dof rx ry rz
    limits (-20.0 45.0)
           (-30.0 30.0)
           (-30.0 30.0)
  end
  begin
     id 16
     name head
     direction -0.00230242 0.999856 -0.0168327  
     length 1.80241  
     axis 0 0 0   XYZ
    dof rx ry rz
    limits (-20.0 45.0)
           (-30.0 30.0)
           (-30.0 30.0)
  end
  begin
     id 17 
     name lclavicle
     direction 0.955523 0.290741 -0.0494489  
     length 3.84275  
     axis 0 0 0   XYZ
    dof ry rz
    limits (-20.0 10.0)
           (0.0 20.0)
  end
  begin
     id 18 
     name lhumerus
     direction 1 -4.48967e-011 -3.18382e-028   
     length 5.17714   
     axis 180 -30 -90   XYZ
    dof rx ry rz
    limits (-60.0 90.0)
           (-90.0 90.0)
           (-90.0 90.0)
  end
  begin
     id 19
     name lradius
     direction 1 -4.48968e-011 -2.22911e-027   
     length 3.43679   
     axis 180 -30 -90   XYZ
    dof rx
    limits (-10.0 170.0)
  end
  begin
     id 20
     name lwrist
     direction 1 -4.48951e-011 -6.32245e-027   
     length 1.7184   
     axis 3.57107e-015 90 90   XYZ
    dof ry
    limits (-180.0 0.0)
 end
  begin
     id 21 
     name lhand
     direction 1 -4.48924e-011 -1.26431e-026   
     length 0.573117   
     axis 8.06912e-015 90 90   XYZ
    dof rx rz
    limits (-90.0 90.0)
           (-45.0 45.0)
  end
  begin
     id 22 
     name lfingers
     direction 1 -4.49001e-011 -2.52965e-026   
     length 0.462062   
     axis 1.61381e-014 90 90   XYZ
    dof rx
    limits (0.0 90.0)
  end
  begin
     id 23
     name lthumb
     direction 0.707107 -6.35008e-011 0.707107   
     length 0.663431   
     axis -90 45 -1.62303e-014   XYZ
    dof rx rz
    limits (-45.0 45.0)
           (-45.0 45.0)
  end
  begin
     id 24 
     name rclavicle
     direction -0.963917 0.256881 -0.0698287   
     length 3.73057  
     axis 0 0 0   XYZ 
    dof ry rz
    limits (-10.0 20.0)
           (-20.0 0.0)
  end
  begin
     id 25 
     name rhumerus
     direction -1 -4.48962e-011 -2.73982e-027  
     length 5.23908   
     axis 180 30 90   XYZ
    dof rx ry rz
    limits (-90.0 60.0)
           (-90.0 90.0)
           (-90.0 90.0)
  end
  begin
     id 26 
     name rradius
     direction -1 -4.48968e-011 -4.33218e-027   
     length 3.46485   
     axis 180 30 90   XYZ
    dof rx
    limits (-10.0 170.0)
  end
  begin
     id 27 
     name rwrist
     direction -1 -4.48989e-011 -6.32372e-027   
     length 1.73243   
     axis 3.57107e-015 -90 -90   XYZ
    dof ry
    limits (-180.0 0.0)
  end
  begin
     id 28
     name rhand
     direction -1 -4.48948e-011 -1.26448e-026   
     length 0.608752   
     axis 8.06912e-015 -90 -90   XYZ
    dof rx rz
    limits (-90.0 90.0)
           (-45.0 45.0)
  end
  begin
     id 29
     name rfingers
     direction -1 -4.48962e-011 -2.52913e-026   
     length 0.490792   
     axis 1.61381e-014 -90 -90   XYZ
    dof rx
    limits (0.0 90.0)
  end
  begin
     id 30
     name rthumb
     direction -0.707107 -6.34878e-011 0.707107   
     length 0.704682   
     axis -90 -45 1.62303e-014   XYZ
    dof rx rz
    limits (-45.0 45.0)
           (-45.0 45.0)
  end
:hierarchy
  begin
    root lhipjoint rhipjoint lowerback
    lhipjoint lfemur
    lfemur ltibia
    ltibia lfoot
    lfoot ltoes
    rhipjoint rfemur
    rfemur rtibia
    rtibia rfoot
    rfoot rtoes
    lowerback upperback
    upperback thorax
    thorax lowerneck lclavicle rclavicle
    lowerneck upperneck
    upperneck head
    lclavicle lhumerus
    lhumerus lradius
    lradius lwrist
    lwrist lhand lthumb
    lhand lfingers
    rclavicle rhumerus
    rhumerus rradius
    rradius rwrist
    rwrist rhand rthumb
    rhand rfingers
  end

#!OML:ASF G:\JayActor3\Patient Classification 1\Patient 1\Session 6\male.ASF
:FULLY-SPECIFIED
:DEGREES
205
root 48.512 15.7739 18.5376 167.668 -34.949 -172.823
lowerback 12.6702 -1.18534 1.66468
upperback -2.45728 -1.28833 0.310979
thorax -9.81207 -0.705382 -0.336048
lowerneck -2.7414 2.99461 4.83326
upperneck 4.28769 3.63631 1.63288
head 1.86521 1.90038 -0.213587
rclavicle -1.87852e-014 0
rhumerus -42.5501 11.0472 -84.6528
rradius 34.6252
rwrist -0.756523
rhand -13.4615 -4.95924
rfingers 7.12502
rthumb 12.6483 -34.5563
lclavicle -1.87852e-014 0
lhumerus -47.7071 -2.9039 78.8445
lradius 30.6544
lwrist 25.6013
lhand -11.7427 8.40503
lfingers 7.12502
lthumb 14.3049 37.8923
rfemur -7.85285 -9.46687 18.4793
rtibia 44.9888
rfoot -12.4279 4.25217
rtoes 4.05063
lfemur 5.56534 15.8505 -12.616
ltibia 26.563
lfoot -23.1313 1.97198
ltoes 6.21532
206
root 48.4983 15.7726 18.5467 167.608 -34.8313 -172.827
lowerback 12.764 -1.18932 1.63506
upperback -2.45287 -1.29958 0.275462
thorax -9.86231 -0.710187 -0.353371
lowerneck -2.71347 3.07469 4.82525
upperneck 4.46941 3.72863 1.7693
head 1.91773 1.9509 -0.165786
rclavicle 5.4467e-014 3.57812e-014
rhumerus -42.6667 11.0305 -84.7215
rradius 34.6525
rwrist -0.757459
rhand -13.3064 -4.94116
rfingers 7.12502
rthumb 12.7978 -34.5289
lclavicle 5.4467e-014 3.57812e-014
lhumerus -47.7819 -2.97362 78.9686
lradius 30.6857
lwrist 25.6362
lhand -11.7224 8.47266
lfingers 7.12502
lthumb 14.3245 37.9585
rfemur -8.04136 -9.65679 18.3211
rtibia 45.3693
rfoot -11.9579 4.5003
rtoes 4.09653
lfemur 5.70866 16.0861 -12.5712
ltibia 26.4991
lfoot -23.1216 1.87348
ltoes 6.07643
207
root 48.4846 15.7712 18.5557 167.543 -34.715 -172.828
lowerback 12.8582 -1.19444 1.61218
upperback -2.44567 -1.31163 0.237161
thorax -9.91 -0.715846 -0.377363
lowerneck -2.67716 3.15719 4.81045
upperneck 4.63292 3.82383 1.92477
head 1.96224 2.00265 -0.110953
rclavicle -2.3556e-014 -6.36111e-015
rhumerus -42.7805 10.9975 -84.7845
rradius 34.7006
rwrist -0.769897
rhand -13.1625 -4.91875
rfingers 7.12502
rthumb 12.9366 -34.4977
lclavicle -2.3556e-014 -6.36111e-015
lhumerus -47.846 -3.06637 79.0886
lradius 30.717
lwrist 25.6738
lhand -11.6923 8.51608
lfingers 7.12502
lthumb 14.3535 37.9999
rfemur -8.23788 -9.85053 18.1619
rtibia 45.7655
rfoot -11.4633 4.74545
rtoes 4.11986
lfemur 5.85632 16.3217 -12.521
ltibia 26.4346
lfoot -23.1137 1.77333
ltoes 5.92595
208
root 48.4707 15.7694 18.5643 167.468 -34.5943 -172.827
lowerback 12.9556 -1.1999 1.59787
upperback -2.43172 -1.32303 0.197122
thorax -9.95237 -0.721719 -0.408234
lowerneck -2.6564 3.23656 4.81961
upperneck 4.80209 3.91381 2.05105
head 2.01257 2.05191 -0.0689722
rclavicle -5.63555e-014 -1.03368e-014
rhumerus -42.8792 10.9432 -84.8375
rradius 34.7571
rwrist -0.781031
rhand -13.033 -4.8948
rfingers 7.12502
rthumb 13.0614 -34.4658
lclavicle -5.63555e-014 -1.03368e-014
lhumerus -47.8912 -3.17534 79.2039
lradius 30.7388
lwrist 25.7124
lhand -11.6835 8.49329
lfingers 7.12502
lthumb 14.362 37.9765
rfemur -8.43754 -10.0481 18.0005
rtibia 46.1801
rfoot -10.939 4.98222
rtoes 4.06226
lfemur 6.01522 16.5343 -12.473
ltibia 26.3704
lfoot -23.1112 1.70021
ltoes 5.75118
209
root 48.4568 15.7675 18.5726 167.392 -34.4773 -172.823
lowerback 13.0524 -1.21019 1.57769
upperback -2.41513 -1.34124 0.165518
thorax -9.99125 -0.730236 -0.425288
lowerneck -2.64408 3.31285 4.84568
upperneck 4.97151 4.00075 2.13557
head 2.06592 2.0994 -0.0427161
rclavicle -3.04141e-014 -1.11319e-014
rhumerus -42.9651 10.8933 -84.8753
rradius 34.8222
rwrist -0.79892
rhand -12.9324 -4.87107
rfingers 7.12502
rthumb 13.1583 -34.4359
lclavicle -3.04141e-014 -1.11319e-014
lhumerus -47.9234 -3.27564 79.319
lradius 30.7562
lwrist 25.7495
lhand -11.688 8.47829
lfingers 7.12502
lthumb 14.3577 37.9618
rfemur -8.65089 -10.2548 17.8373
rtibia 46.6158
rfoot -10.3849 5.21412
rtoes 3.97477
lfemur 6.17365 16.7402 -12.4224
ltibia 26.3069
lfoot -23.1092 1.62747
ltoes 5.5621
210
root 48.4432 15.7656 18.5807 167.321 -34.365 -172.817
lowerback 13.1462 -1.22851 1.54999
upperback -2.39877 -1.37075 0.143476
thorax -10.0285 -0.743421 -0.425374
lowerneck -2.62161 3.39032 4.86931
upperneck 5.12036 4.09238 2.19619
head 2.11132 2.14844 -0.0236996
rclavicle -8.3589e-014 7.15625e-015
rhumerus -43.0394 10.8715 -84.9084
rradius 34.8981
rwrist -0.833779
rhand -12.8622 -4.85643
rfingers 7.12502
rthumb 13.2261 -34.4169
lclavicle -8.3589e-014 7.15625e-015
lhumerus -47.9433 -3.35372 79.4302
lradius 30.7646
lwrist 25.7881
lhand -11.7227 8.44827
lfingers 7.12502
lthumb 14.3242 37.9341
rfemur -8.88902 -10.4776 17.6726
rtibia 47.0761
rfoot -9.79846 5.4334
rtoes 3.7977
lfemur 6.32379 16.9542 -12.367
ltibia 26.2441
lfoot -23.1058 1.54018
ltoes 5.36565
211
root 48.4299 15.764 18.5888 167.256 -34.2578 -172.813
lowerback 13.242 -1.25276 1.51475
upperback -2.38508 -1.40888 0.128037
thorax -10.0696 -0.760087 -0.412065
lowerneck -2.61171 3.46759 4.91125
upperneck 5.27727 4.18445 2.21625
head 2.16323 2.19762 -0.0200565
rclavicle -9.22361e-014 -2.06736e-014
rhumerus -43.1069 10.8735 -84.9404
rradius 34.9826
rwrist -0.888534
rhand -12.8403 -4.86586
rfingers 7.12502
rthumb 13.2471 -34.4249
lclavicle -9.22361e-014 -2.06736e-014
lhumerus -47.9523 -3.41246 79.5347
lradius 30.7609
lwrist 25.8255
lhand -11.7563 8.41656
lfingers 7.12502
lthumb 14.2918 37.9047
rfemur -9.15356 -10.7109 17.5046
rtibia 47.564
rfoot -9.17726 5.64334
rtoes 3.56182
lfemur 6.46755 17.1922 -12.3026
ltibia 26.1802
lfoot -23.0946 1.42756
ltoes 5.15634
212
root 48.4171 15.7624 18.5968 167.195 -34.1525 -172.812
lowerback 13.3435 -1.27834 1.47947
upperback -2.37405 -1.44899 0.110298
thorax -10.117 -0.777772 -0.400532
lowerneck -2.60048 3.55008 4.95264
upperneck 5.42361 4.28316 2.24613
head 2.21139 2.25006 -0.01308
rclavicle 2.90226e-014 -2.62396e-014
rhumerus -43.1737 10.8761 -84.9745
rradius 35.0736
rwrist -0.956299
rhand -12.8389 -4.86348
rfingers 7.12502
rthumb 13.2485 -34.4224
lclavicle 2.90226e-014 -2.62396e-014
lhumerus -47.9489 -3.4683 79.6237
lradius 30.7467
lwrist 25.8676
lhand -11.7759 8.39876
lfingers 7.12502
lthumb 14.273 37.8883
rfemur -9.44257 -10.9514 17.3303
rtibia 48.0831
rfoot -8.51639 5.84807
rtoes 3.32994
lfemur 6.61258 17.4584 -12.2293
ltibia 26.1129
lfoot -23.0789 1.28824
ltoes 4.94443
213
root 48.4044 15.761 18.6047 167.141 -34.0457 -172.819
lowerback 13.4477 -1.30292 1.44489
upperback -2.36547 -1.48831 0.0857346
thorax -10.169 -0.795344 -0.396742
lowerneck -2.57549 3.64006 4.98681
upperneck 5.54924 4.39161 2.30496
head 2.24947 2.30721 0.00409913
rclavicle 1.13605e-013 -3.97569e-015
rhumerus -43.2403 10.8708 -85.0112
rradius 35.168
rwrist -1.02381
rhand -12.8551 -4.87071
rfingers 7.12502
rthumb 13.2329 -34.4307
lclavicle 1.13605e-013 -3.97569e-015
lhumerus -47.9311 -3.52816 79.6946
lradius 30.7186
lwrist 25.9161
lhand -11.772 8.40148
lfingers 7.12502
lthumb 14.2767 37.8907
rfemur -9.75699 -11.1968 17.1445
rtibia 48.6362
rfoot -7.80779 6.05082
rtoes 3.1362
lfemur 6.76269 17.7485 -12.1538
ltibia 26.0383
lfoot -23.0596 1.13327
ltoes 4.73276
214
root 48.3919 15.7597 18.6125 167.091 -33.9375 -172.836
lowerback 13.5585 -1.32685 1.41123
upperback -2.36033 -1.52735 0.0528152
thorax -10.2288 -0.813112 -0.402276
lowerneck -2.5494 3.73294 5.04205
upperneck 5.67609 4.50285 2.35773
head 2.28863 2.36597 0.016024
rclavicle 1.2921e-015 9.54166e-015
rhumerus -43.3166 10.8683 -85.0587
rradius 35.2769
rwrist -1.10274
rhand -12.8635 -4.87544
rfingers 7.12502
rthumb 13.2248 -34.4359
lclavicle 1.2921e-015 9.54166e-015
lhumerus -47.9018 -3.59937 79.7487
lradius 30.6763
lwrist 25.9764
lhand -11.7708 8.39329
lfingers 7.12502
lthumb 14.2779 37.8824
rfemur -10.0937 -11.4403 16.947
rtibia 49.2241
rfoot -7.04713 6.24558
rtoes 3.04265
lfemur 6.92141 18.053 -12.0798
ltibia 25.9538
lfoot -23.0342 0.973745
ltoes 4.50688
215
root 48.3793 15.7584 18.6202 167.04 -33.8191 -172.862
lowerback 13.6754 -1.35021 1.37577
upperback -2.35276 -1.56633 0.0168209
thorax -10.2895 -0.830821 -0.409947
lowerneck -2.51337 3.83176 5.10403
upperneck 5.78687 4.62256 2.41316
head 2.32096 2.42874 0.0275924
rclavicle 4.87022e-015 -5.56597e-015
rhumerus -43.3919 10.8786 -85.1098
rradius 35.397
rwrist -1.18172
rhand -12.8552 -4.87084
rfingers 7.12502
rthumb 13.2328 -34.4308
lclavicle 4.87022e-015 -5.56597e-015
lhumerus -47.8562 -3.66531 79.7862
lradius 30.6174
lwrist 26.037
lhand -11.7641 8.41418
lfingers 7.12502
lthumb 14.2843 37.9029
rfemur -10.4477 -11.6725 16.7379
rtibia 49.8467
rfoot -6.225 6.42938
rtoes 3.10623
lfemur 7.09787 18.3587 -12.0092
ltibia 25.857
lfoot -23.007 0.823225
ltoes 4.27366
216
root 48.3668 15.7573 18.6276 166.986 -33.6952 -172.887
lowerback 13.7958 -1.37704 1.34155
upperback -2.3441 -1.60977 -0.018201
thorax -10.3513 -0.850688 -0.416105
lowerneck -2.47526 3.93577 5.17766
upperneck 5.89302 4.74971 2.45594
head 2.35225 2.49512 0.0334218
rclavicle 2.54444e-014 2.38542e-015
rhumerus -43.4567 10.897 -85.161
rradius 35.5192
rwrist -1.25502
rhand -12.8432 -4.8654
rfingers 7.12502
rthumb 13.2443 -34.4246
lclavicle 2.54444e-014 2.38542e-015
lhumerus -47.7964 -3.71756 79.8074
lradius 30.5414
lwrist 26.088
lhand -11.7745 8.39542
lfingers 7.12502
lthumb 14.2743 37.8848
rfemur -10.8247 -11.9007 16.5289
rtibia 50.5012
rfoot -5.3448 6.57897
rtoes 3.19959
lfemur 7.28513 18.6619 -11.9352
ltibia 25.7478
lfoot -22.9739 0.681362
ltoes 4.01298
217
root 48.3545 15.7566 18.6346 166.938 -33.5707 -172.907
lowerback 13.9096 -1.40586 1.30747
upperback -2.33663 -1.65586 -0.0508485
thorax -10.4104 -0.871726 -0.419204
lowerneck -2.43628 4.0425 5.26205
upperneck 5.99249 4.88046 2.49428
head 2.38178 2.56328 0.0361299
rclavicle 8.26944e-014 8.74653e-015
rhumerus -43.5047 10.8998 -85.1991
rradius 35.6337
rwrist -1.30277
rhand -12.8221 -4.85212
rfingers 7.12502
rthumb 13.2647 -34.41
lclavicle 8.26944e-014 8.74653e-015
lhumerus -47.7194 -3.76644 79.8182
lradius 30.4465
lwrist 26.1272
lhand -11.8049 8.35999
lfingers 7.12502
lthumb 14.245 37.8515
rfemur -11.2363 -12.1249 16.3282
rtibia 51.1853
rfoot -4.41139 6.68006
rtoes 3.33454
lfemur 7.47184 18.9754 -11.8512
ltibia 25.6253
lfoot -22.9312 0.527812
ltoes 3.74398
218
root 48.3426 15.7566 18.6414 166.892 -33.4441 -172.917
lowerback 14.0162 -1.43836 1.27642
upperback -2.32958 -1.70602 -0.0777988
thorax -10.4658 -0.894672 -0.416962
lowerneck -2.37814 4.15437 5.33466
upperneck 6.06465 5.02001 2.54842
head 2.39808 2.63524 0.045295
rclavicle -2.0773e-014 1.51076e-014
rhumerus -43.5342 10.8983 -85.2282
rradius 35.7427
rwrist -1.33673
rhand -12.7967 -4.8552
rfingers 7.12502
rthumb 13.2891 -34.4115
lclavicle -2.0773e-014 1.51076e-014
lhumerus -47.6255 -3.8128 79.825
lradius 30.3339
lwrist 26.1578
lhand -11.8511 8.30897
lfingers 7.12502
lthumb 14.2005 37.8036
rfemur -11.684 -12.3446 16.1428
rtibia 51.8972
rfoot -3.43514 6.7218
rtoes 3.46148
lfemur 7.65745 19.2957 -11.7544
ltibia 25.4894
lfoot -22.8822 0.368545
ltoes 3.45983
219
root 48.3311 15.7573 18.6478 166.848 -33.3137 -172.915
lowerback 14.1151 -1.47299 1.2533
upperback -2.32191 -1.75752 -0.101509
thorax -10.5162 -0.918608 -0.415459
lowerneck -2.32191 4.26685 5.41855
upperneck 6.13604 5.16035 2.59259
head 2.41523 2.70762 0.0495155
rclavicle -2.69353e-014 -1.03368e-014
rhumerus -43.5434 10.8785 -85.2461
rradius 35.8423
rwrist -1.34988
rhand -12.7727 -4.86716
rfingers 7.12502
rthumb 13.3123 -34.422
lclavicle -2.69353e-014 -1.03368e-014
lhumerus -47.514 -3.86537 79.827
lradius 30.2067
lwrist 26.18
lhand -11.8781 8.28614
lfingers 7.12502
lthumb 14.1744 37.7826
rfemur -12.1683 -12.5552 15.9779
rtibia 52.636
rfoot -2.42892 6.69674
rtoes 3.58737
lfemur 7.84437 19.623 -11.6419
ltibia 25.337
lfoot -22.8249 0.19997
ltoes 3.18268
